# xmcd
#
# Track frame offsets: 
#        150
#        16100
#        31508
#        50511
#        68967
#        84874
#        98639
#        115580
#        128941
#        144645
#
# Disc length: 2121 seconds
#
# Revision: 1
# Processed by: cddbd v1.5.2PL0 Copyright (c) Steve Scherf et al.
# Submitted via: ExactAudioCopy v1.0b3
#
DISCID=7308470a
DTITLE=Fabienne Louves - Schwarz Uf Wiiss [CD)
DYEAR=07
DGENRE=
TTITLE0=Bitte Lüg Mi A (Radio Edit)
TTITLE1=Ech Wott Dech Ha (Radio Edit)
TTITLE2=Fanny (Radio Edit)
TTITLE3=Wenn Nüt Me Goht (Radio Edit)
TTITLE4=Ned Guet För Mech (Radio Edit)
TTITLE5=Wot Mech Sälber Si (Radio Edit)
TTITLE6=Hemmigslos Liebe (Radio Edit)
TTITLE7=Fascht E Chli Z'eifach (Radio Edit)
TTITLE8=Chönnt Der Alles Gä (Radio Edit)
TTITLE9=Wach Uf (Radio Edit)
EXTD=
EXTT0=
EXTT1=
EXTT2=
EXTT3=
EXTT4=
EXTT5=
EXTT6=
EXTT7=
EXTT8=
EXTT9=
PLAYORDER=
